<svg xmlns="http://www.w3.org/2000/svg" width="249" height="115.457" viewBox="0 0 249 115.457">
  <g id="グループ_12" data-name="グループ 12" transform="translate(-125.5 -322.833)">
    <g id="グループ_9" data-name="グループ 9" transform="translate(-39.5 163)">
      <path id="Icon_ionic-md-hand" data-name="Icon ionic-md-hand" d="M100.538,60.648c-3.527-3.525-8.718-3.842-12.245-.317L78.212,70.406c-2.624,2.62-5.787,2.626-7.633.448-1.223-1.443-.74-5.894-.4-8.717l5.056-41.556a6.778,6.778,0,1,0-13.45-1.635l-5.577,32.64c-.291.812-.916.952-.987-.141l-1.9-42.424a6.774,6.774,0,0,0-13.549,0l-.133,42.741c.035.493-.388.635-.464.071L33.153,18.47A6.923,6.923,0,0,0,25.282,12.8a6.984,6.984,0,0,0-5.463,8.077l5.367,39.042c.006.694-.228,1.091-.558.2l-8.006-21.4A6.889,6.889,0,0,0,7.97,34.389a7,7,0,0,0-4.116,8.858L17.889,89.1c.073.253.151.5.23.754l.029.094c0,.007.006.014.008.021a29.86,29.86,0,0,0,28.394,20.613,40.4,40.4,0,0,0,24.026-8.142h0C77.831,98.075,101.065,73.1,101.065,73.1,104.592,69.572,104.065,64.174,100.538,60.648Z" transform="translate(310.538 157.583)" fill="#3cb371"/>
      <text id="テ" transform="translate(331 252)" fill="#fff" font-size="55" font-family="BMYEONSUNG-OTF, BM Yeonsung"><tspan x="0" y="0">テ</tspan></text>
      <g id="楕円形_4" data-name="楕円形 4" transform="translate(332.9 227.2)" fill="#fff" stroke="#fff" stroke-width="1">
        <ellipse cx="1.8" cy="2.3" rx="1.8" ry="2.3" stroke="none"/>
        <ellipse cx="1.8" cy="2.3" rx="1.3" ry="1.8" fill="none"/>
      </g>
      <g id="楕円形_5" data-name="楕円形 5" transform="translate(338 214.1)" fill="#fff" stroke="#fff" stroke-width="1">
        <ellipse cx="1.8" cy="2.3" rx="1.8" ry="2.3" stroke="none"/>
        <ellipse cx="1.8" cy="2.3" rx="1.3" ry="1.8" fill="none"/>
      </g>
      <g id="グループ_4" data-name="グループ 4" transform="translate(11.204 0.385)">
        <g id="グループ_3" data-name="グループ 3">
          <g id="楕円形_1" data-name="楕円形 1" transform="translate(213.9 222.3)" stroke="#000" stroke-width="1">
            <ellipse cx="1.8" cy="2.3" rx="1.8" ry="2.3" stroke="none"/>
            <ellipse cx="1.8" cy="2.3" rx="1.3" ry="1.8" fill="none"/>
          </g>
          <g id="楕円形_2" data-name="楕円形 2" transform="translate(213.59 248.29)" stroke="#000" stroke-width="1">
            <ellipse cx="1.8" cy="2.25" rx="1.8" ry="2.25" stroke="none"/>
            <ellipse cx="1.8" cy="2.25" rx="1.3" ry="1.75" fill="none"/>
          </g>
          <g id="楕円形_3" data-name="楕円形 3" transform="translate(213.9 222.3)" stroke="#000" stroke-width="1">
            <ellipse cx="1.8" cy="2.3" rx="1.8" ry="2.3" stroke="none"/>
            <ellipse cx="1.8" cy="2.3" rx="1.3" ry="1.8" fill="none"/>
          </g>
          <g id="グループ_2" data-name="グループ 2">
            <path id="パス_1" data-name="パス 1" d="M7.59-27.83H37.345V-6.435H7.15v4.51h32.3L42.13-4.673V-29.741L39.412-32.4H7.59v4.565Z" transform="translate(208 254.7)"/>
            <path id="パス_4" data-name="パス 4" d="M205.457,346.875s4.562-7.543,9.666,0" transform="translate(44.673 -130.416)" fill="none" stroke="#000" stroke-linecap="round" stroke-width="4.5"/>
            <path id="パス_6" data-name="パス 6" d="M205.457,346.875s4.562-7.543,9.666,0" transform="translate(26.673 -132.092)" fill="none" stroke="#000" stroke-linecap="round" stroke-width="4.5"/>
          </g>
          <g id="楕円形_7" data-name="楕円形 7" transform="matrix(0.788, -0.616, 0.616, 0.788, 245.3, 223.716)" stroke="#000" stroke-width="1">
            <ellipse cx="1.8" cy="2.3" rx="1.8" ry="2.3" stroke="none"/>
            <ellipse cx="1.8" cy="2.3" rx="1.3" ry="1.8" fill="none"/>
          </g>
          <g id="楕円形_8" data-name="楕円形 8" transform="matrix(-0.616, -0.788, 0.788, -0.616, 247.316, 253.599)" stroke="#000" stroke-width="1">
            <ellipse cx="1.8" cy="2.3" rx="1.8" ry="2.3" stroke="none"/>
            <ellipse cx="1.8" cy="2.3" rx="1.3" ry="1.8" fill="none"/>
          </g>
        </g>
      </g>
      <g id="グループ_1" data-name="グループ 1" transform="translate(-41 -49.3)">
        <text id="ノ" transform="translate(313.9 302.59)" font-size="55" font-family="BMYEONSUNG-OTF, BM Yeonsung"><tspan x="0" y="0">ノ</tspan></text>
        <g id="パス_7" data-name="パス 7" transform="translate(351.309 265.8) rotate(111)">
          <path d="M 2.081738948822021 5.21999979019165 C 0.9889989495277405 5.21999979019165 0.09999895095825195 4.071589946746826 0.09999895095825195 2.659999847412109 C 0.09999895095825195 1.248409867286682 0.9889989495277405 0.09999984502792358 2.081738948822021 0.09999984502792358 C 3.174479007720947 0.09999984502792358 4.063478946685791 1.248409867286682 4.063478946685791 2.659999847412109 C 4.063478946685791 4.071589946746826 3.174479007720947 5.21999979019165 2.081738948822021 5.21999979019165 Z" stroke="none"/>
          <path d="M 2.081738948822021 0.1999998092651367 C 1.044148921966553 0.1999998092651367 0.1999988555908203 1.303549766540527 0.1999988555908203 2.659999847412109 C 0.1999988555908203 4.016449928283691 1.044148921966553 5.119999885559082 2.081738948822021 5.119999885559082 C 3.11932897567749 5.119999885559082 3.963479042053223 4.016449928283691 3.963479042053223 2.659999847412109 C 3.963479042053223 1.303549766540527 3.11932897567749 0.1999998092651367 2.081738948822021 0.1999998092651367 M 2.081738948822021 0 C 3.231448888778687 0 4.163478851318359 1.190919876098633 4.163478851318359 2.659999847412109 C 4.163478851318359 4.129079818725586 3.231448888778687 5.319999694824219 2.081738948822021 5.319999694824219 C 0.9320290088653564 5.319999694824219 -9.5367431640625e-07 4.129079818725586 -9.5367431640625e-07 2.659999847412109 C -9.5367431640625e-07 1.190919876098633 0.9320290088653564 0 2.081738948822021 0 Z" stroke="none" fill="#000"/>
        </g>
        <g id="パス_8" data-name="パス 8" transform="translate(327.027 302.631) rotate(146)">
          <path d="M 2.308695554733276 5.800000190734863 C 1.090815544128418 5.800000190734863 0.09999555349349976 4.521500110626221 0.09999555349349976 2.950000047683716 C 0.09999555349349976 1.3785001039505 1.090815544128418 0.1000000461935997 2.308695554733276 0.1000000461935997 C 3.526575565338135 0.1000000461935997 4.517395496368408 1.3785001039505 4.517395496368408 2.950000047683716 C 4.517395496368408 4.521500110626221 3.526575565338135 5.800000190734863 2.308695554733276 5.800000190734863 Z" stroke="none"/>
          <path d="M 2.308695554733276 0.2000002861022949 C 1.145955562591553 0.2000002861022949 0.1999955177307129 1.433640003204346 0.1999955177307129 2.950000047683716 C 0.1999955177307129 4.466360092163086 1.145955562591553 5.699999809265137 2.308695554733276 5.699999809265137 C 3.471435546875 5.699999809265137 4.41739559173584 4.466360092163086 4.41739559173584 2.950000047683716 C 4.41739559173584 1.433640003204346 3.471435546875 0.2000002861022949 2.308695554733276 0.2000002861022949 M 2.308695554733276 0 C 3.583755493164062 0 4.617395401000977 1.320760250091553 4.617395401000977 2.950000047683716 C 4.617395401000977 4.579239845275879 3.583755493164062 5.900000095367432 2.308695554733276 5.900000095367432 C 1.03363561630249 5.900000095367432 -4.291534423828125e-06 4.579239845275879 -4.291534423828125e-06 2.950000047683716 C -4.291534423828125e-06 1.320760250091553 1.03363561630249 0 2.308695554733276 0 Z" stroke="none" fill="#000"/>
        </g>
      </g>
      <g id="楕円形_9" data-name="楕円形 9" transform="translate(376.5 227.2)" fill="#fff" stroke="#fff" stroke-width="1">
        <ellipse cx="1.8" cy="2.3" rx="1.8" ry="2.3" stroke="none"/>
        <ellipse cx="1.8" cy="2.3" rx="1.3" ry="1.8" fill="none"/>
      </g>
      <g id="楕円形_10" data-name="楕円形 10" transform="translate(371 214.1)" fill="#fff" stroke="#fff" stroke-width="1">
        <ellipse cx="1.8" cy="2.3" rx="1.8" ry="2.3" stroke="none"/>
        <ellipse cx="1.8" cy="2.3" rx="1.3" ry="1.8" fill="none"/>
      </g>
      <g id="パス_9" data-name="パス 9" transform="translate(344.701 255.021) rotate(146)" fill="#fff">
        <path d="M 2.073913097381592 5.199999809265137 C 0.9854931235313416 5.199999809265137 0.1000031009316444 4.056069850921631 0.1000031009316444 2.649999856948853 C 0.1000031009316444 1.243929862976074 0.9854931235313416 0.09999985992908478 2.073913097381592 0.09999985992908478 C 3.162333011627197 0.09999985992908478 4.047822952270508 1.243929862976074 4.047822952270508 2.649999856948853 C 4.047822952270508 4.056069850921631 3.162333011627197 5.199999809265137 2.073913097381592 5.199999809265137 Z" stroke="none"/>
        <path d="M 2.073913097381592 0.1999998092651367 C 1.040633201599121 0.1999998092651367 0.2000031471252441 1.299069881439209 0.2000031471252441 2.649999856948853 C 0.2000031471252441 4.000929832458496 1.040633201599121 5.099999904632568 2.073913097381592 5.099999904632568 C 3.107192993164062 5.099999904632568 3.947823047637939 4.000929832458496 3.947823047637939 2.649999856948853 C 3.947823047637939 1.299069881439209 3.107192993164062 0.1999998092651367 2.073913097381592 0.1999998092651367 M 2.073913097381592 0 C 3.219303131103516 0 4.147823333740234 1.186450004577637 4.147823333740234 2.649999856948853 C 4.147823333740234 4.113549709320068 3.219303131103516 5.299999713897705 2.073913097381592 5.299999713897705 C 0.928523063659668 5.299999713897705 2.86102294921875e-06 4.113549709320068 2.86102294921875e-06 2.649999856948853 C 2.86102294921875e-06 1.186450004577637 0.928523063659668 0 2.073913097381592 0 Z" stroke="none" fill="#fff"/>
      </g>
      <g id="グループ_5" data-name="グループ 5" transform="translate(18 -0.41)">
        <text id="マ" transform="translate(147 253.7)" font-size="55" font-family="BMYEONSUNG-OTF, BM Yeonsung"><tspan x="0" y="0">マ</tspan></text>
        <g id="楕円形_12" data-name="楕円形 12" transform="matrix(0.454, 0.891, -0.891, 0.454, 178.932, 250.127)" stroke="#000" stroke-width="1">
          <ellipse cx="1.8" cy="2.3" rx="1.8" ry="2.3" stroke="none"/>
          <ellipse cx="1.8" cy="2.3" rx="1.3" ry="1.8" fill="none"/>
        </g>
        <g id="楕円形_13" data-name="楕円形 13" transform="matrix(0.545, 0.839, -0.839, 0.545, 162.126, 229.71)" stroke="#000" stroke-width="1">
          <ellipse cx="1.8" cy="2.4" rx="1.8" ry="2.4" stroke="none"/>
          <ellipse cx="1.8" cy="2.4" rx="1.3" ry="1.9" fill="none"/>
        </g>
        <g id="楕円形_14" data-name="楕円形 14" transform="translate(187.926 220.225) rotate(-30)" stroke="#000" stroke-width="1">
          <ellipse cx="2.3" cy="2.8" rx="2.3" ry="2.8" stroke="none"/>
          <ellipse cx="2.3" cy="2.8" rx="1.8" ry="2.3" fill="none"/>
        </g>
        <g id="楕円形_15" data-name="楕円形 15" transform="translate(148.981 219.026) rotate(2)" stroke="#000" stroke-width="1">
          <ellipse cx="1.8" cy="2.3" rx="1.8" ry="2.3" stroke="none"/>
          <ellipse cx="1.8" cy="2.3" rx="1.3" ry="1.8" fill="none"/>
        </g>
      </g>
    </g>
  </g>
</svg>
